<?xml version="1.0" encoding="UTF-8"?>
<svg width="318px" height="39px" viewBox="0 0 318 39" version="1.1" xmlns="http://www.w3.org/2000/svg" xmlns:xlink="http://www.w3.org/1999/xlink">
    <!-- Generator: Sketch 61.2 (89653) - https://sketch.com -->
    <title>注单后台管理系统</title>
    <desc>Created with Sketch.</desc>
    <g id="页面-1" stroke="none" stroke-width="1" fill="none" fill-rule="evenodd">
        <g id="商户后台登录页" transform="translate(-877.000000, -386.000000)" fill="#383B41" fill-rule="nonzero">
            <path d="M914.32,422.84 L914.32,418.76 L903.72,418.76 L903.72,409.64 L912.4,409.64 L912.4,405.64 L903.72,405.64 L903.72,397.52 L913.48,397.52 L913.48,393.44 L903.76,393.44 C903.16,391.48 902.28,389.32 901.16,386.92 L897.28,388.04 C898.16,389.76 898.96,391.56 899.64,393.44 L889.56,393.44 L889.56,397.52 L899.52,397.52 L899.52,405.64 L890.68,405.64 L890.68,409.64 L899.52,409.64 L899.52,418.76 L888.6,418.76 L888.6,422.84 L914.32,422.84 Z M885.68,396.4 L888.64,393.4 C886.72,391.44 884.4,389.48 881.68,387.48 L878.68,390.36 C881.72,392.52 884.04,394.52 885.68,396.4 Z M884.36,405.8 L887.32,402.84 C885.52,400.84 883.32,398.84 880.72,396.84 L877.76,399.72 C880.6,401.92 882.8,403.96 884.36,405.8 Z M882.52,423.84 C884.72,419.44 886.72,414.72 888.48,409.72 L884.72,408.16 C882.88,412.88 880.76,417.52 878.32,422 L882.52,423.84 Z M938.08,424.36 L938.08,417.36 L953.92,417.36 L953.92,413.44 L938.08,413.44 L938.08,410.48 L950.36,410.48 L950.36,393.08 L943.24,393.08 C944.28,391.64 945.28,390 946.16,388.2 L942.12,386.76 C941.2,389 940.12,391.08 938.88,393.08 L931.12,393.08 L933.48,391.88 C932.28,390.08 931,388.44 929.64,386.96 L926.16,388.64 C927.36,389.96 928.52,391.44 929.64,393.08 L921.64,393.08 L921.64,410.48 L933.92,410.48 L933.92,413.44 L918.08,413.44 L918.08,417.36 L933.92,417.36 L933.92,424.36 L938.08,424.36 Z M933.92,399.96 L925.68,399.96 L925.68,396.72 L933.92,396.72 L933.92,399.96 Z M946.32,399.96 L938.08,399.96 L938.08,396.72 L946.32,396.72 L946.32,399.96 Z M946.32,406.8 L938.08,406.8 L938.08,403.48 L946.32,403.48 L946.32,406.8 Z M933.92,406.8 L925.68,406.8 L925.68,403.48 L933.92,403.48 L933.92,406.8 Z M960.44,424.12 C963.72,418.76 965.48,411.52 965.72,402.48 L965.72,402.2 L994,402.2 L994,398.12 L965.72,398.12 L965.72,393.64 C975.4,393.4 984.12,392.56 991.88,391.12 L989.84,387.36 C981.6,388.96 972.16,389.8 961.6,389.88 L961.6,402.48 C961.4,410.32 959.96,416.44 957.32,420.84 L960.44,424.12 Z M972.68,424.2 L972.68,422.68 L986.88,422.68 L986.88,424.2 L991.08,424.2 L991.08,406.56 L968.48,406.56 L968.48,424.2 L972.68,424.2 Z M986.88,418.6 L972.68,418.6 L972.68,410.56 L986.88,410.56 L986.88,418.6 Z M1030.2,406.56 L1034.28,404.56 C1031.4,399.72 1028.4,395.32 1025.2,391.32 L1021.4,393.12 C1022.64,394.68 1023.88,396.36 1025.08,398.12 C1018.92,398.68 1012.6,399.12 1006.12,399.44 C1009.4,396.4 1012.56,392.72 1015.64,388.48 L1011.32,386.96 C1005.88,394.92 1001.72,399.12 998.92,399.56 L999.68,403.52 C1009.88,403.16 1019.16,402.6 1027.48,401.84 C1028.4,403.36 1029.32,404.92 1030.2,406.56 Z M1006.44,424.24 L1006.44,422.72 L1025.56,422.72 L1025.56,424.24 L1029.8,424.24 L1029.8,407.08 L1002.2,407.08 L1002.2,424.24 L1006.44,424.24 Z M1025.56,418.72 L1006.44,418.72 L1006.44,411.08 L1025.56,411.08 L1025.56,418.72 Z M1048.12,397.4 L1051.92,395.92 C1051.48,395.08 1050.92,394.2 1050.28,393.28 L1055.96,393.28 L1055.96,389.64 L1046.12,389.64 C1046.36,389.04 1046.56,388.44 1046.8,387.84 L1042.76,386.96 C1041.84,389.76 1040.24,392.44 1037.92,394.92 L1041.56,397.24 C1042.6,396.04 1043.52,394.72 1044.36,393.28 L1045.84,393.28 C1046.72,394.6 1047.48,395.96 1048.12,397.4 Z M1042.8,405.6 L1042.8,401.28 L1069.2,401.28 L1069.2,405.6 L1073.28,405.6 L1073.28,397.76 L1058.24,397.76 C1058,397.04 1057.72,396.36 1057.48,395.72 L1059.32,396.88 C1060.12,395.76 1060.88,394.56 1061.56,393.28 L1063.36,393.28 C1064.2,394.48 1064.92,395.72 1065.56,397 L1069.24,395.6 C1068.84,394.88 1068.36,394.08 1067.8,393.28 L1074.12,393.28 L1074.12,389.64 L1063.12,389.64 C1063.32,389.08 1063.52,388.48 1063.72,387.88 L1059.76,387 C1058.96,389.72 1057.64,392.28 1055.8,394.68 L1056.6,395.2 L1053.08,395.8 C1053.4,396.4 1053.72,397.04 1054.04,397.76 L1038.72,397.76 L1038.72,405.6 L1042.8,405.6 Z M1069.64,424.2 L1069.64,413.32 L1048.48,413.32 L1048.48,411.44 L1067.76,411.44 L1067.76,402.84 L1044.28,402.84 L1044.28,424.16 L1048.48,424.16 L1048.48,422.84 L1065.52,422.84 L1065.52,424.2 L1069.64,424.2 Z M1063.72,408.16 L1048.48,408.16 L1048.48,406.16 L1063.72,406.16 L1063.72,408.16 Z M1065.52,419.16 L1048.48,419.16 L1048.48,416.6 L1065.52,416.6 L1065.52,419.16 Z M1114.48,423.12 L1114.48,419.08 L1104.52,419.08 L1104.52,415.36 L1113.12,415.36 L1113.12,411.48 L1104.52,411.48 L1104.52,407.8 L1112.64,407.8 L1112.64,388.4 L1092.16,388.4 L1092.16,407.8 L1100.36,407.8 L1100.36,411.48 L1091.72,411.48 L1091.72,415.36 L1100.36,415.36 L1100.36,419.08 L1090.2,419.08 L1090.2,423.12 L1114.48,423.12 Z M1078.48,419.32 C1082.64,418.32 1086.56,417.12 1090.24,415.68 L1090.24,411.64 C1089,412.16 1087.76,412.64 1086.48,413.08 L1086.48,405.52 L1090.36,405.52 L1090.36,401.52 L1086.48,401.52 L1086.48,393.36 L1090.84,393.36 L1090.84,389.4 L1077.84,389.4 L1077.84,393.36 L1082.24,393.36 L1082.24,401.52 L1078.44,401.52 L1078.44,405.52 L1082.24,405.52 L1082.24,414.32 C1080.68,414.72 1079.08,415.04 1077.44,415.32 L1078.48,419.32 Z M1100.36,396.32 L1096.16,396.32 L1096.16,392.08 L1100.36,392.08 L1100.36,396.32 Z M1108.64,396.32 L1104.52,396.32 L1104.52,392.08 L1108.64,392.08 L1108.64,396.32 Z M1108.64,404.12 L1104.52,404.12 L1104.52,399.88 L1108.64,399.88 L1108.64,404.12 Z M1100.36,404.12 L1096.16,404.12 L1096.16,399.88 L1100.36,399.88 L1100.36,404.12 Z M1134.64,424.04 C1137.24,424.04 1138.56,422.68 1138.56,420 L1138.56,410.16 C1141.6,409.92 1144.4,409.68 1146.96,409.4 C1147.84,410.72 1148.68,412 1149.4,413.28 L1152.72,411 C1150.96,408.08 1148.4,404.68 1145.08,400.8 L1142,402.72 C1142.88,403.84 1143.76,404.96 1144.6,406.08 C1140.68,406.56 1136.08,406.96 1130.88,407.32 C1135.44,404.68 1140.84,400.68 1147.04,395.36 L1143.2,393.48 C1141.44,395.08 1139.76,396.56 1138.12,397.92 C1135.48,398.12 1132.8,398.32 1130.16,398.48 C1132.28,396.96 1134.32,395.04 1136.24,392.8 C1142.08,392.4 1147.12,391.76 1151.4,390.88 L1149.36,387.4 C1141.36,388.88 1131.64,389.64 1120.2,389.64 L1121.4,393.24 C1124.76,393.24 1127.96,393.16 1131.08,393.08 C1129,395.4 1127.28,396.88 1125.88,397.56 C1125,397.96 1124.08,398.2 1123.08,398.32 L1123.92,401.96 C1127.36,401.76 1130.68,401.56 1133.8,401.32 C1130.44,403.76 1127.36,405.56 1124.6,406.76 C1123.52,407.16 1122.32,407.4 1121,407.52 L1122.16,411.16 C1126.56,410.96 1130.6,410.72 1134.36,410.48 L1134.36,418.96 C1134.36,419.8 1133.96,420.24 1133.2,420.24 C1131.88,420.24 1130.52,420.12 1129.12,419.96 L1130.08,424.04 L1134.64,424.04 Z M1150.88,423.36 L1153.84,420.4 C1151.16,417.56 1147.84,414.72 1143.92,411.84 L1141.16,414.52 C1145.36,417.68 1148.6,420.64 1150.88,423.36 Z M1120.56,423.2 C1124.56,420.8 1127.88,417.96 1130.56,414.72 L1127.64,412.12 C1125,415.04 1121.8,417.6 1117.96,419.8 L1120.56,423.2 Z M1190.04,406.24 L1193.28,403.96 C1191.88,401.44 1189.88,398.48 1187.28,395.08 L1184.08,397.08 L1186.24,400.08 C1183.28,400.56 1180.28,400.96 1177.24,401.24 C1178.36,399.72 1179.64,397.64 1181.08,394.92 L1193.24,394.92 L1193.24,390.96 L1184.56,390.96 C1184.08,389.44 1183.6,388.04 1183.12,386.84 L1178.88,387.56 C1179.44,388.6 1179.92,389.76 1180.36,390.96 L1170.76,390.96 L1170.76,394.92 L1176.72,394.92 C1174.92,398.32 1173.44,400.44 1172.32,401.32 C1172.16,401.4 1171.88,401.52 1171.52,401.64 L1172.4,405.32 C1178.2,404.88 1183.56,404.28 1188.48,403.56 C1189.04,404.44 1189.56,405.36 1190.04,406.24 Z M1158.88,414.64 C1162.76,414.04 1166.88,412.84 1171.28,411 L1171.28,407.16 C1168.84,408.24 1166.44,409.12 1164.08,409.76 C1166.16,406.92 1168.76,402.56 1171.88,396.68 L1168.16,395.24 C1167.4,396.72 1166.68,398.12 1166.04,399.4 C1164.84,399.6 1163.64,399.76 1162.44,399.88 C1164.36,396.92 1166.24,393.16 1168.08,388.52 L1164.08,386.96 C1162.72,391.2 1161.12,395.08 1159.28,398.6 C1158.72,399.4 1158.12,399.92 1157.48,400.2 L1158.52,404.04 C1160.36,403.76 1162.2,403.48 1163.96,403.24 C1162.2,406.28 1160.76,408.4 1159.64,409.6 C1159.16,410.08 1158.52,410.48 1157.76,410.8 L1158.88,414.64 Z M1190.04,423.44 C1191.96,423.28 1193.24,422.84 1193.8,422.04 C1194.36,421.16 1194.68,418.84 1194.68,415 L1191.12,413.72 C1191.12,415.56 1191.04,417.04 1190.96,418.12 C1190.88,419.12 1190.52,419.68 1189.84,419.76 L1187.72,419.76 C1187.28,419.64 1187.08,419.28 1187.08,418.68 L1187.08,405.88 L1183.12,405.88 L1183.12,419.52 C1183.12,422.12 1184.6,423.44 1187.6,423.44 L1190.04,423.44 Z M1171.64,424.12 C1174.36,422.28 1176.28,420.08 1177.44,417.56 C1178.48,415.2 1179.08,411.48 1179.32,406.36 L1175.24,406.36 C1175.08,410.72 1174.56,413.84 1173.68,415.72 C1172.76,417.64 1171.2,419.32 1168.96,420.76 L1171.64,424.12 Z M1158.88,422.6 C1163.52,421.48 1167.64,419.96 1171.28,418.12 L1171.28,414.16 C1167.6,415.92 1163.28,417.36 1158.36,418.44 L1158.88,422.6 Z" id="注单后台管理系统"></path>
        </g>
    </g>
</svg>