<?xml version="1.0" encoding="UTF-8"?>
<svg width="100px" height="110px" viewBox="0 0 100 110" version="1.1" xmlns="http://www.w3.org/2000/svg" xmlns:xlink="http://www.w3.org/1999/xlink">
    <!-- Generator: Sketch 61.2 (89653) - https://sketch.com -->
    <title>维护</title>
    <desc>Created with Sketch.</desc>
    <g id="页面-1" stroke="none" stroke-width="1" fill="none" fill-rule="evenodd">
        <g id="系统维护页" transform="translate(-910.000000, -276.000000)" fill-rule="nonzero">
            <g id="编组-3" transform="translate(873.000000, 276.000000)">
                <g id="维护" transform="translate(87.000000, 55.000000) scale(-1, 1) translate(-87.000000, -55.000000) translate(37.000000, 0.000000)">
                    <path d="M0.0773907104,53.3384563 C0.0773907104,71.1775278 9.59442165,87.6615098 25.0435107,96.5810456 C40.4925998,105.500581 59.5266625,105.500581 74.9757516,96.5810456 C90.4248406,87.6615098 99.9418716,71.1775278 99.9418716,53.3384563 C99.9418716,25.7616414 77.5864461,3.40621585 50.0096311,3.40621585 C22.4328162,3.40621585 0.0773907104,25.7616414 0.0773907104,53.3384563 Z" id="路径" fill="#E9EAEB" opacity="0.100000001"></path>
                    <path d="M44.4478825,44.9176913 L17.1298497,72.235724 L41.2752049,97.2630464 L53.4358607,85.1012978 C56.2555328,82.2816257 61.8959699,86.5111339 65.9495219,82.6346311 L70.0041667,78.5799863 L74.0566257,74.5264344 L44.4489754,44.9176913 L44.4478825,44.9176913 Z" id="路径" fill="#FFFFFF"></path>
                    <path d="M41.2752049,99.9067623 L14.6620902,72.235724 L44.4478825,42.4499317 L76.5243852,74.5264344 L67.0074454,84.0444672 C64.1877732,86.8641393 60.8391393,86.3351776 58.3713798,86.1592213 C56.432582,85.983265 55.1987022,85.8062158 54.4937842,86.5111339 L41.2752049,99.9067623 Z M19.5965164,72.235724 L41.2752049,94.7952869 L52.2030738,83.8685109 C54.1407787,81.9297131 56.6085383,82.2816257 58.9003415,82.4586749 C61.5440574,82.8105874 63.305806,82.8105874 64.7156421,81.4007514 L71.589959,74.5264344 L44.4478825,47.3854508 L19.5965164,72.235724 Z" id="形状" fill="#2A5082"></path>
                    <path d="M36.516735,22.710041 C38.4555328,17.246653 37.0456967,10.9023907 32.6391393,6.49583333 C27.705806,1.5625 20.4784836,0.503483607 14.6620902,3.32315574 L24.0030738,12.6641393 L16.600888,20.0663251 L7.25990437,10.7253415 C4.44023224,16.541735 5.49706284,23.9439208 10.432582,28.7034836 C14.8380464,33.1089481 21.1834016,34.3428279 26.6467896,32.5799863 L84.2795765,90.2127732 C87.0992486,93.0324454 91.505806,93.0324454 94.3254781,90.2127732 C97.1451503,87.3931011 97.1451503,82.9865437 94.3254781,80.1668716 L36.516735,22.710041 Z" id="路径" fill="#AFACFF"></path>
                    <path d="M89.0380464,94.0903689 C86.7462432,94.0903689 84.4555328,93.2094945 82.8697404,91.4455601 L25.9418716,34.6958333 C19.7735656,36.2827186 13.4282104,34.6958333 8.84569672,30.1144126 C3.55826503,24.825888 2.14842896,16.7176913 5.49815574,10.0204235 L6.55607923,7.72971311 L16.4249317,17.5985656 L21.3604508,12.6641393 L11.4915984,2.79528689 L13.7823087,1.73736339 C20.4784836,-1.43531421 28.5855874,-0.0254781421 33.8730191,5.08599727 C38.2795765,9.49255464 40.0413251,16.0127732 38.4555328,22.1821721 L95.3823087,79.1089481 C98.7311313,82.6080263 98.7311313,88.1235311 95.3823087,91.6226093 C93.6205601,93.2094945 91.505806,94.0903689 89.0380464,94.0903689 Z M26.9997951,30.6411885 L85.3364071,88.9799863 C87.2752049,90.9176913 90.800888,90.9176913 92.7396858,88.9799863 C94.8544399,86.8641393 94.8544399,83.5155055 92.7396858,81.5767077 L34.400888,23.2390027 L34.7538934,22.1821721 C36.516735,17.0706967 35.1068989,11.6073087 31.4052596,7.72971311 C27.8806694,4.20512295 22.5932377,2.79419399 17.8347678,4.02807377 L26.4708333,12.6641393 L16.4249317,22.710041 L7.78886612,14.0739754 C6.55389344,18.8335383 7.78886612,24.1209699 11.4894126,27.6455601 C15.3670082,31.5231557 20.8303962,32.7570355 25.9418716,30.994194 L26.9997951,30.6411885 Z" id="形状" fill="#2A5082"></path>
                    <path d="M62.6019809,31.3461066 L58.9003415,27.6455601 C57.4905055,26.235724 55.3746585,26.235724 53.9648224,27.6455601 L46.5626366,35.0477459 L55.1987022,43.6838115 L62.600888,36.2816257 C63.8347876,34.8678126 63.8347876,32.7599197 62.600888,31.3461066 L62.6019809,31.3461066 Z" id="路径" fill="#FFFFFF"></path>
                    <path d="M56.2566257,45.0936475 L53.7888661,42.625888 L61.1910519,35.2237022 C61.8959699,34.5187842 61.8959699,33.4619536 61.1910519,32.7570355 L57.4894126,28.8794399 C56.7844945,28.1745219 55.7276639,28.1745219 55.0227459,28.8794399 L47.6205601,36.2816257 L45.1528005,33.8138661 L52.5549863,26.4116803 C54.6697404,24.2969262 58.0194672,24.2969262 59.9571721,26.4116803 L63.6588115,30.1133197 C65.7735656,32.2280738 65.7735656,35.5767077 63.6588115,37.5155055 L56.2566257,45.0936475 L56.2566257,45.0936475 Z" id="路径" fill="#2A5082"></path>
                    <path d="M73.7047131,37.5155055 L70.0030738,33.8138661 C68.5932377,32.4040301 66.4784836,32.4040301 65.0686475,33.8138661 L55.0227459,43.8597678 L63.6588115,52.4958333 L73.7047131,42.4499317 C75.1145492,41.2160519 75.1145492,38.9253415 73.7047131,37.5155055 L73.7047131,37.5155055 Z" id="路径" fill="#FFFFFF"></path>
                    <path d="M65.0686475,53.7297131 L62.600888,51.2619536 L72.6467896,41.2160519 C73.3517077,40.5111339 73.3517077,39.4543033 72.6467896,38.7493852 L68.9462432,35.0477459 C68.2413251,34.3428279 67.1834016,34.3428279 66.4784836,35.0477459 L56.432582,45.0936475 L53.9648224,42.625888 L64.010724,32.5799863 C65.9495219,30.6411885 69.4752049,30.6411885 71.4129098,32.5799863 L75.1145492,36.2816257 C77.2293033,38.3963798 77.2293033,41.7461066 75.1145492,43.6838115 L65.0686475,53.7297131 L65.0686475,53.7297131 Z" id="路径" fill="#2A5082"></path>
                    <path d="M82.6926913,51.0859973 C83.9276639,49.8521175 83.9276639,47.7373634 82.5178279,46.3275273 L78.8161885,42.625888 C77.4063525,41.2160519 75.2905055,41.2160519 74.0566257,42.4510246 L63.6588115,52.8488388 C62.4238388,54.0827186 62.4238388,56.1974727 63.8347678,57.6073087 L67.5364071,61.3089481 C68.9462432,62.7187842 71.0609973,62.7187842 72.294877,61.4838115 L82.6926913,51.0859973 Z" id="路径" fill="#FFFFFF"></path>
                    <path d="M70.180123,64.1286202 C68.7702869,64.1286202 67.3604508,63.5996585 66.3025273,62.541735 L62.600888,58.8411885 C60.4861339,56.7264344 60.4861339,53.5537568 62.4249317,51.614959 L72.8238388,41.2160519 C73.7047131,40.3351776 75.1145492,39.8062158 76.5243852,39.8062158 C77.9342213,39.8062158 79.169194,40.5111339 80.0489754,41.3931011 L83.7506148,45.0936475 C85.8653689,47.2084016 85.8653689,50.3810792 83.926571,52.319877 L73.5287568,62.7187842 C72.6467896,63.5996585 71.4129098,64.1286202 70.180123,64.1286202 Z M76.1724727,43.1559426 C75.8194672,43.1559426 75.4675546,43.330806 75.1145492,43.5078552 L64.7156421,53.9056694 C64.1877732,54.4346311 64.1877732,55.4925546 64.8926913,56.1974727 L68.5932377,59.8980191 C69.2981557,60.6029372 70.3560792,60.6029372 70.885041,60.0750683 L81.2828552,49.6761612 C81.8118169,49.1471995 81.8118169,48.0903689 81.1068989,47.3854508 L77.4052596,43.6838115 C77.053347,43.5078552 76.7003415,43.330806 76.1724727,43.1548497 L76.1724727,43.1559426 Z" id="形状" fill="#2A5082"></path>
                    <path d="M51.8500683,33.1089481 C49.7353142,30.994194 47.4435109,29.7603142 44.094877,30.289276 C40.7462432,30.8182377 35.1068989,31.3461066 33.1681011,32.7570355 C31.2293033,34.1668716 29.4664617,41.2160519 29.4664617,46.5034836 C29.4664617,53.0247951 29.2905055,59.3701503 27.8806694,60.7799863 L16.4249317,72.235724 L46.2096311,69.5920082 C53.2599044,62.5428279 52.2030738,50.5570355 46.3866803,44.9176913 L54.3178279,52.8488388 C59.9571721,58.4881831 68.4161885,54.4346311 69.8271175,50.910041 C68.064276,49.3242486 51.8500683,33.1089481 51.8500683,33.1089481 Z" id="路径" fill="#FFFFFF"></path>
                    <path d="M17.6588115,73.6455601 L15.1910519,71.1778005 L26.6456967,59.7220628 C26.9987022,59.1931011 27.7036202,56.7264344 27.7036202,46.6805328 C27.7036202,41.5690574 29.2894126,33.4619536 32.1090847,31.3471995 C33.8719262,29.9373634 37.5735656,29.4084016 41.9790301,28.7023907 C42.5079918,28.7023907 43.2129098,28.5275273 43.7418716,28.5275273 C48.3243852,27.8215164 51.1440574,29.9373634 53.0828552,31.8750683 L71.7659153,50.5570355 L71.4129098,51.614959 C70.3560792,54.2586749 67.1834016,56.5493852 63.6588115,57.2543033 C59.6041667,58.1362705 55.9036202,57.0794399 53.0839481,54.2586749 L52.5549863,53.7297131 C53.6129098,59.7220628 52.2030738,66.2433743 47.4435109,71.0018443 L44.9768443,68.5340847 C51.3211066,62.1898224 50.264276,51.4390027 45.1517077,46.3275273 L47.6205601,43.8597678 L55.5517077,51.7909153 C58.0183743,54.2586749 60.8391393,54.2586749 62.9538934,53.9056694 C65.0686475,53.3778005 66.6544399,52.319877 67.7123634,51.2619536 L50.6161885,34.3428279 C48.5014344,32.2280738 46.7385929,31.699112 44.2719262,32.0521175 C43.7429645,32.0521175 43.2140027,32.2269809 42.5090847,32.2269809 C39.6894126,32.5799863 35.4599044,33.2849044 34.2249317,34.1668716 C33.1681011,35.0477459 31.4052596,41.0400956 31.4052596,46.5034836 C31.4052596,57.6073087 30.5243852,60.7799863 29.2905055,62.0138661 L17.6588115,73.6455601 Z" id="路径" fill="#2A5082"></path>
                    <path d="M87.8041667,61.1318989 C89.0380464,59.8980191 89.0380464,58.1362705 87.8041667,56.9023907 L84.6314891,53.7297131 C83.3976093,52.4958333 81.6358607,52.4958333 80.4019809,53.7297131 L70.885041,63.246653 C69.6500683,64.4816257 69.6500683,66.2433743 70.885041,67.4761612 L74.0566257,70.6499317 C75.2915984,71.8827186 77.053347,71.8827186 78.2861339,70.6499317 L87.8052596,61.1318989 L87.8041667,61.1318989 Z" id="路径" fill="#FFFFFF"></path>
                    <path d="M76.348429,73.2936475 C75.1145492,73.2936475 73.8806694,72.7646858 72.9997951,71.8838115 L69.8260246,68.710041 C67.8872268,66.7712432 67.8872268,63.7745219 69.8260246,62.0127732 L79.3429645,52.4947404 C81.105806,50.5559426 84.2784836,50.7329918 86.0402322,52.4947404 L89.2129098,55.667418 C91.1517077,57.6062158 91.1517077,60.6018443 89.2129098,62.3646858 L79.6959699,71.8816257 C78.8150956,72.7635929 77.5812158,73.2914617 76.3473361,73.2914617 L76.348429,73.2936475 Z M82.516735,54.6105874 C82.1648224,54.6105874 81.8118169,54.7876366 81.6358607,54.9635929 L72.1178279,64.3045765 C71.589959,64.8335383 71.589959,65.5384563 72.1178279,66.067418 L75.2905055,69.2390027 C75.4675546,69.4160519 75.8194672,69.5920082 76.1724727,69.5920082 C76.5243852,69.5920082 76.8773907,69.4160519 77.053347,69.2390027 L86.5702869,59.7220628 C87.0992486,59.1931011 87.0992486,58.4881831 86.5702869,57.9603142 L83.3976093,54.7865437 C83.2227459,54.6094945 82.8697404,54.6094945 82.516735,54.6094945 L82.516735,54.6105874 Z" id="形状" fill="#2A5082"></path>
                    <polygon id="路径" fill="#E9EAEB" points="17.9965164 63.6772541 49.6620902 95.3220628 38.4489754 106.541735 6.78340164 74.8969262"></polygon>
                    <path d="M38.4555328,109.070697 L4.26318306,74.8794399 L18.0118169,61.1318989 L52.2041667,95.3242486 L38.4555328,109.070697 Z M9.19870219,74.8794399 L38.4555328,104.13627 L47.2675546,95.3242486 L18.010724,66.067418 L9.19870219,74.8794399 Z" id="形状" fill="#2A5082"></path>
                    <path d="M84.6861339,83.3745219 L87.180123,80.8827186 L90.6697404,84.3723361 L88.1757514,86.8663251 L84.6861339,83.3745219 L84.6861339,83.3745219 Z M15.8369536,74.4477459 L18.3287568,71.9559426 L23.5637295,77.1909153 L21.0719262,79.6827186 L15.8369536,74.4477459 L15.8369536,74.4477459 Z" id="形状" fill="#2A5082"></path>
                </g>
            </g>
        </g>
    </g>
</svg>